<?xml version="1.0" encoding="utf-8"?>
<!-- Generator: Adobe Illustrator 26.5.0, SVG Export Plug-In . SVG Version: 6.00 Build 0)  -->
<svg version="1.1" id="Layer_1" xmlns="http://www.w3.org/2000/svg" xmlns:xlink="http://www.w3.org/1999/xlink" x="0px" y="0px"
	 viewBox="0 0 444 500" style="enable-background:new 0 0 444 500;" xml:space="preserve">
<g>
	<g>
		<path d="M348.4,343.5c-0.9,0.3-1.8,0.7-3,1.1c-0.6-2.1-1.1-4.1-1.6-6c-0.5,0-0.8-0.1-0.9-0.1c-2.6,2.6-5,1.3-7.8-0.1
			c-3.8-1.9-7.9-3.2-12-4.5c-9.9-3.3-20.2-3-30.5-2.9c-10.3,0.1-20.6,0-30.8,0c-3.6,0-6.6,1.1-8.3,4.5c-1.8,3.5,0,8.2,3.8,9.5
			c1.7,0.6,3.6,0.8,5.5,0.8c12.9,0.1,25.7,0,38.5,0.1c4.9,0,9.8,0.2,14.6,0.9c3.2,0.5,6.4,2,9.5,3.1c0.5,0.2,0.8,1,1.1,1.5
			c0.8,1.4,1.4,2.9,2.3,4.1c1,1.4,2.6,1.7,4,0.5c1.4-1.2,2.4-0.9,3.7,0c7.2,5.1,12.4,11.9,16.3,19.7c5.9,11.8,5.7,24.5,4.2,36.8
			c-1.4,11.6-8,21.1-17.4,28.5c-8.2,6.4-17.7,8.9-27.9,9.6c-5.3,0.3-7.9,3.6-7,8.8c0.5,3.1,3.9,5.7,7.7,5.6c7.3-0.2,14.7-0.7,22-0.7
			c3.3,0,6.8,0.1,10,1c6.6,1.8,12.7,4.6,18.1,9c7.2,5.9,12,13.3,15.1,22c1,2.7,0.2,3.7-2.8,3.7c-17.3,0-34.6,0-51.9,0
			c-79.4,0-158.8,0-238.2-0.1c-8.6,0-17-1.5-25.2-4.2c-8.4-2.8-16.2-6.5-23.4-11.6c-8.3-5.9-15.4-13-21.2-21.3
			c-5.5-7.9-9.5-16.5-12.1-25.9c-2.2-8-3.3-16.1-3.1-24.4c0.2-10.2,4.9-17.9,13.6-23.1c11-6.5,25.1-4.6,33.9,4.6
			c5,5.2,7.7,11.5,7.8,18.6c0.1,9.4,3.5,17,10.1,23.4c0.2,0.2,0.4,0.5,0.8,0.9c-1.6,1.9-3,1.1-4.2-0.3c-1.8-2.2-3.5-4.4-5.2-6.7
			c-1.2-1.6-2.2-1.6-3.4,0.3c2.3,3,4.6,6.1,7.1,9.1c1.8,2.1,4.2,2.2,6.5,0.9c1.6-0.9,2.8-0.8,4.4,0.2c4.4,2.6,9.2,3.9,14.4,3.9
			c23.9,0,47.9,0,71.8,0c0.4,0,0.9,0.1,1.3,0c0.7-0.2,1.7-0.4,2-0.9c0.2-0.5-0.1-1.5-0.5-2.1c-4.1-6-8.4-11.8-12.2-18
			c-5.9-9.7-9.6-20.9-14-31.4c-1.1-2.5-2.1-5.5-0.8-7.9c0.9-1.6,2.6-2.5,3.9-3.8s2.1-3.5,0.8-4.9c0.1,0.1-5.3,3-6.6,2.5
			c-1.7-0.7-1.7-3.3-1.4-4.8c0.2-1,0.6-1.9,1.3-2.7c0.2-0.2,2.4-1.9,2.5-1.7c-0.2-1.2-1.9-1-3-1.4c-1.9-0.6-2.3-3.1-2.4-5.1
			c-0.5-14.7-1.5-29.5,2.1-43.9c1.5-7.3,3.1-14.7,5.5-21.8c3.7-10.9,8.7-21.3,14.8-31.1c9.7-15.5,21.7-28.9,36.2-40.2
			c11.6-9,24.2-16.3,37.9-21.8c4.7-1.9,9.2-4.4,13.8-6.8c5.9-3,11.5-6.5,15.9-11.5c6-6.8,10.6-14.3,12.1-23.5
			c0.5-2.9,1.3-5.9,1.2-8.9c-0.2-3.5-1.2-6.9-1.8-10.3c-0.8-4.3-1.6-8.7-2.1-13c-1.6-14.7-1-29,9.6-40.1c-1.4-1-3.1-1.6-4.8-1.6
			c1.5-7.8,3.4-15.5,5.5-23.2c1.1-4.1,2.3-8.1,3.6-12.1c3-9.4,6.7-18.4,11.9-26.8c3.9-6.2,8.4-12.1,13-17.9c2.2-2.7,5.1-4.8,7.9-7
			c2-1.6,3.5-0.7,4.2,2.2c3.2,12.1,5.2,24.4,5.8,36.8c0.1,2.5,1.6,2.9,3.4,2.3c11.4-4,23.1-3.7,34.9-3.1c1.8,0.1,3.1,0,4.1-2.2
			c5.3-11.5,12-22.2,21.6-30.7c2.1-1.9,4.3-3.6,6.6-5.3c2.1-1.6,2.8-1.2,3.5,1.3c5.2,17.2,7.1,34.8,7.2,52.7c0,1.4,1,3.2,2,4.2
			c6.4,6,12.3,12.3,16.8,19.9c1.4,2.3,2.5,4.7,3.8,7c2.2,3.9,4.5,7.7,6.8,11.6c-0.6,0.4-1.7,1.2-2.7,2c-0.2,0.2-0.5,0.4-0.7,0.6
			c-0.7-1.4-1.5-2.8-2.2-4.2c-0.5,0.3-1,0.5-1.5,0.8c0.1,1.3-0.1,2.9,0.5,3.8c1.9,2.7-0.9,3.1-1.9,4.3c-1.2,1.4-2.1,0.6-3-0.5
			c-0.5-0.6-1.1-1.2-1.7-1.8c-1.4,1.4-1.2,2.6-0.5,4.3c0.9,2.3,1.4,4.1,4.1,4.9c1.6,0.5,2.6,2.8,4,4.2c2.1,2.1,4.6,2,6.6,0
			c0.4-0.4,0.7-1.1,0.6-1.5c-0.2-0.4-1-1.1-1.4-1c-4.8,1.8-5.5-2.9-8.4-5c1.5-1.4,2.9-2.7,4.3-4c3.8,2.9,5.7,9.7,12.4,5.8
			c1.5,5,2.1,9.5,1.5,14.6c-1.9,15-11.5,25.5-20.3,36.6c-3.9,4.8-7.5,10-10.3,15.5c-2.2,4.5-2.8,9.5-1.3,14.9
			c1.4,4.7,4.1,8.5,6.2,12.7c4.7,9.5,8.4,19.4,9.2,29.9c0.8,8.9,0.7,18.1,0,27c-0.5,6.3-2.8,12.5-4.5,18.7
			c-2.9,10-8.6,18.5-14.4,27.1c-1.6,2.4-2.7,5.5-2.7,8.3c-0.2,17.4,0,34.7,0,52.1c0,22.4,0,44.8-0.1,67.3c0,1.5-1.2,3.1-2.1,5.1
			c-1.7-2-2.9-3.4-4.1-4.9c-0.8,0.5-1.4,1-2.3,1.6c1.1,1.5,2.1,2.8,3,4.1c2.5,3.4,4.9,6.8,7.4,10.1c0.6,0.8,1.6,1.5,2.4,2.2
			c0.7-0.9,1.4-1.8,2.6-3.2c3.5,2,7.5,4,11.3,6.4c7.4,4.8,12.9,11.5,17,19.2c1.9,3.5,3,7.5,4,11.4c0.9,3.3,1.2,6.7,1.7,10.1
			c0.3,2.1-0.5,3.2-3,3.2c-14.9-0.1-29.8-0.1-44.7,0c-2.3,0-3.1-1-3.6-3c-2.2-9.3-6.3-17.7-12.5-25.1c-7.5-9-16.8-15.3-27.8-19.1
			c-0.8-0.3-1.5-0.6-3.1-1.3c2.7-2.5,5.1-4.4,7.1-6.7c6.7-7.6,11.9-16.1,13.8-26.1c3.2-16.7,2.9-33.1-4.5-48.8
			c-3.5-7.4-8.3-13.9-14.2-19.7c-1.9-1.9-4.7-3.2-3.4-6.7c2.1,0.8,4.5-0.9,4.7-3.5c-1,0.4-1.9,0.7-2.9,1.1c-0.5-2.2-1-4.3-1.7-6.8
			c-1.5,1.1-2.4,1.7-3.2,2.5c-0.4,0.3-0.4,1-0.6,1.5c0.5,0,1.1,0,1.6-0.1c0.3,0,0.6-0.2,1.2-0.5
			C347.8,339.7,348.1,341.6,348.4,343.5z M364.7,322.8c1.4,1.4,2.7,2.8,4.2,4.1c0.8,0.7,2.2,1.6,2.7,1.4c1.3-0.7,2.4-1.9,3-3.2
			c0.3-0.6-0.7-2.3-1.5-2.6c-0.9-0.4-2.3,0-2.8,0.1c-0.5-2-1.1-3.9-1.7-6.2C366.5,318.5,363.3,319.3,364.7,322.8
			c-0.5-0.5-1-0.9-1.6-1.4c-1,0.9-1.9,1.6-2.5,2.1c1.8,2.1,3.6,4.1,5.3,6.1c0.3-0.2,0.6-0.4,0.8-0.7c-0.7-1-1.5-1.9-2.2-2.9
			C363.7,325,362.5,323.9,364.7,322.8z M53.5,448.9c-1.9-2.6-3.5-5-5.4-7.3c-1.3-1.6-1.8-3,0.2-4.4c1.8-1.4,3.3-0.8,4.5,0.9
			c1.5,2,2.9,4,4.5,5.9c0.5,0.5,1.5,0.6,2.3,0.8c0-0.8,0.4-1.8,0-2.4c-1.1-1.8-2.4-3.5-3.7-5.2c-3.9-5.1-6.2-5.3-10.8-0.7
			c-0.1,0.1-0.3,0.1-1.2,0.3c-0.8-1.1-1.8-2.5-2.7-3.8c-2.4,1.2-2.5,2.3-1,3.9c1.7,1.8,3.2,3.7,4.8,5.7c2.1,2.6,4,5.3,6.2,8.1
			C52,450,52.6,449.6,53.5,448.9z M398.6,125c-1-1.2-1.6-2.3-2.6-3.1c-0.5-0.4-1.4-0.4-2.2-0.6c0,0.8-0.4,1.8-0.1,2.2
			c3.9,5,8,10,12,14.9c0.1,0.2,0.5,0.2,0.9,0.4c0.5-0.5,1.1-1,1.8-1.6c-2.1-2.5-4-4.9-6-7.3c-1.1-1.4-2.2-2.7-0.3-4.3
			c1.9-1.5,3.4-0.9,4.8,0.7c1.5,1.9,3.1,3.7,4.5,5.6c1.4,1.8,2.4,1.3,3.5-0.6c-2.3-2.7-4.5-5.6-7-8.2c-1.9-2-4.7-1.9-7-0.1
			C400.2,123.5,399.6,124.2,398.6,125z M152.4,369.6c-2-0.6-3.8-1.2-5.5-1.8c-4.1-1.3-4.1-1.3-3.5-5.5c0.2-1.3,0.2-2.7,0.3-4.3
			c-4.6,1.8-2.2,6.1-4.2,8.8c-0.6-0.8-1.2-1.6-1.7-2.3c-1.2-1.8-2.4-3.7-3.8-5.5c-0.3-0.4-1.5-0.6-1.9-0.4c-0.4,0.2-0.8,1.5-0.6,1.8
			c3.5,5.4,7.1,10.8,10.7,16.1c2.9-0.7,2.4-2,1.2-3.7c-0.5-0.8-0.5-1.9-0.8-2.8c0.9,0.1,1.8,0.1,2.7,0.3c0.8,0.1,1.5,0.4,2.3,0.8
			C149.4,371.9,150.9,371.6,152.4,369.6z M416.5,111c-2.1,0.9-2.5,1.9-1.1,3.5c1.7,1.9,3.2,4,5,5.8c1.6,1.6,1,2.8-0.5,3.9
			c-1.8,1.3-3.3,0.9-4.6-0.7c-1.9-2.3-3.9-4.6-5.8-6.8c-2.1,0.8-2.6,1.8-1.1,3.4c1.5,1.7,3,3.5,4.5,5.3c1.5,1.8,3.1,3.3,5.7,2.5
			c3-1,5-3.3,6.3-6.1c0.2-0.4,0-1.1-0.3-1.4C421.9,117.2,419.1,114.1,416.5,111z M403,139.9c0.1-3.4-3.4-5.6-6.8-4.4
			c-1.5,0.5-3.4,2.7-4.6,0.3c-1-2.1,1.4-2.7,2.9-3.7c0.5-0.3,0.6-1.2,0.9-1.8c-0.7-0.3-1.6-1.1-2-0.8c-1.5,0.8-3,1.6-4,2.9
			c-1.5,1.7-1.5,3.7-0.1,5.6c1.4,1.9,3.2,2.3,5.4,1.5c0.7-0.3,1.5-0.9,2.2-0.9c0.9,0,1.9,0.3,2.8,0.6c-0.3,0.9-0.4,1.9-0.9,2.5
			c-0.9,0.9-2.1,1.2-3.1,2c-0.4,0.3-0.8,1.2-0.6,1.7c0.1,0.5,0.9,1.1,1.4,1.2C399.1,146.4,403,142.5,403,139.9z M403.6,453.5
			c-0.1-2.9-2.7-4.7-5.7-3.9c-1,0.3-1.9,1-3,1.1c-0.7,0.1-1.6-0.3-2.3-0.5c0.2-0.8,0.3-1.8,0.8-2.3c0.7-0.7,1.9-0.9,2.7-1.6
			c0.5-0.4,0.9-1.2,0.8-1.8c0-0.4-1-0.9-1.6-0.9c-2.2,0.1-5.4,3-5.9,5.2c-0.7,3,1.6,5.6,4.6,5c1.1-0.2,2.1-0.9,3.3-1.1
			c0.9-0.1,1.9,0.1,2.9,0.2c-0.4,1-0.6,2.2-1.3,2.8c-0.9,0.9-2.4,1.2-3.4,2c-0.4,0.3-0.6,1.1-0.7,1.8c0,0.3,0.7,0.8,1.1,0.9
			C398.7,460.9,403.7,456.2,403.6,453.5z M38.8,458.4c0.3,0.2,0.7,0.4,1,0.6c3-1,5.5-2.8,7.2-5.5c1.2-1.8,1.1-3.7-0.4-5.4
			c-1.5-1.5-3.2-1.3-4.9-0.4c-1,0.5-1.8,1.1-2.8,1.5c-0.6,0.2-1.3-0.1-1.9-0.1c0.1-0.7-0.1-1.7,0.3-2.1c1-1,2.3-1.6,3.3-2.6
			c0.4-0.4,0.6-1.3,0.6-1.9c0-0.2-1.2-0.7-1.6-0.5c-2.6,1.2-5,3-5.6,5.9c-0.3,1.2,0.1,3,0.9,3.8c0.8,0.7,2.6,0.8,3.8,0.6
			c1.2-0.2,2.2-1.2,3.3-1.6c0.7-0.2,1.6,0,2.4,0c-0.2,0.9-0.1,2-0.6,2.6c-0.9,1-2.3,1.6-3.3,2.5C39.6,456.5,39.3,457.5,38.8,458.4z
			 M352,331c-2.7,2.7-2.6,4,0.1,6.9c2,2.1,2.9,1.9,6.8-1.8c-1.9-3.5-6.2-7.6-8.1-7.6C351.2,329.4,351.6,330.2,352,331z M360.3,332.2
			c-0.3-0.3-0.5-0.7-0.8-1c0.6-0.6,1.3-1.2,1.7-1.9c0.3-0.6,0.3-1.9,0.1-2c-1.2-0.5-2.8-1.2-3.7-0.7c-0.9,0.5-1.8,2.5-1.5,3.3
			c0.5,1.4,1.8,2.9,3.2,3.6c0.9,0.4,2.6-0.4,3.6-1.1c0.5-0.4,0.4-1.7,0.6-2.6c-0.2,0-0.5-0.1-0.7-0.1
			C362,330.6,361.1,331.4,360.3,332.2z M387.1,311.2c0.9-1.2,2.2-2.4,2.5-3.7c0.4-1.8-2.7-4.8-4.5-4.9c-1.8,0-3.4,1.7-3.4,3.4
			C381.9,307.9,384.7,310.7,387.1,311.2z M378.6,317.2c-1.1-1.2-2.6-2.9-4.2-4.5c-0.3-0.3-1-0.3-1.5-0.5c0.1,0.5-0.1,1.2,0.2,1.6
			c0.7,0.9,1.6,1.6,2.2,2.6c0.3,0.5,0.1,1.4,0.2,2.1c-0.7-0.1-1.5,0-2-0.4c-0.9-0.7-1.6-1.7-2.5-2.4c-0.4-0.3-1-0.2-1.6-0.4
			c0.1,0.5,0,1.2,0.3,1.6c1,1.2,2,2.6,3.4,3.4c0.8,0.5,2.4,0.3,3.2-0.2C377.3,319.6,377.8,318.4,378.6,317.2z M375,310.5
			c2,2,3.1,4.9,6.2,5.5c-0.5-1.4-1.6-2.4-2.2-3.5c-0.4-0.8-0.3-2-0.4-2.9c0.8,0.4,1.6,0.6,2.3,1.2c1.1,0.9,2,2,3,3.1
			c0.4-0.3,0.7-0.7,1.1-1c-1.6-1.7-2.9-3.9-4.8-5.1C377.6,306.1,377.1,309.9,375,310.5z M387.1,299.9c-0.2,0.4-0.4,0.8-0.7,1.2
			c2.1,1.4,4.1,2.9,6.3,4.2c0.3,0.2,1.7-0.7,1.7-0.8c-0.8-2.6-1.8-5.1-2.7-7.6c-0.5,0.2-0.9,0.3-1.4,0.5c0.5,1.6,0.9,3.2,1.4,5
			C390.1,301.5,388.6,300.7,387.1,299.9z M183.8,481.3c-4.9-1.2-6.9,0.5-6.5,4.2c0.1,0.6,0.7,1.1,1.1,1.7c0.5-0.6,1.3-1.1,1.4-1.7
			c0.1-1.5,0.5-2.2,2.1-2.5C182.6,483,183.2,481.9,183.8,481.3z M268.7,250.4c0.2,0.2,0.7,1,1.2,1.7c0.5-0.6,0.9-1.4,1.4-1.9
			c0.6-0.6,1.4-1.1,2.1-1.6c0.5-0.4,0.9-0.8,1.4-1.2c-0.4-0.5-0.7-1.2-1.2-1.4C270.7,245,268.7,246.6,268.7,250.4z M185.4,486.6
			c0.1,2.5,0.1,4.5-2.8,4.5c-0.2,0-0.6,0.9-0.5,1.3s0.6,1.1,0.8,1.1c1.4-0.3,3.4-0.3,4-1.2c0.8-1.2,0.7-3.1,0.7-4.7
			C187.6,487.2,186.3,487,185.4,486.6z M275.6,95.3c0.3,2.7-0.8,4.1-3.5,3.6c-0.6,1.7-0.3,2.5,1.5,2.6c2.8,0.2,4.4-1.1,4.5-3.9
			C278.2,96.1,278.1,94.7,275.6,95.3z M279.1,254.1c-0.1-0.2-0.7-0.8-1.2-1.4c-0.5,0.6-1.2,1.1-1.3,1.7c-0.2,1.4-0.8,1.9-2.2,2
			c-0.5,0-1.3,0.7-1.3,1.1c0,0.4,0.6,1.2,1.1,1.4C276.9,259.7,279.1,257.9,279.1,254.1z"/>
		<path d="M433.4,98.6c1.7,2.8,3,4.9,4.2,7c0.3,0.6,0.1,1.4,0.1,2.1c-0.8,0-2,0.4-2.4,0c-1.5-1.4-3.2-2.9-4.1-4.7
			C430.8,102.1,432.4,100.4,433.4,98.6z"/>
		<path d="M329.4,351.5c1,0.7,2,1.3,3,2C330.7,355.2,330.2,355,329.4,351.5z"/>
		<path d="M353.3,332.2c1.2,1.4,2,2.4,2.6,3.4c0.1,0.2-0.8,1-1.3,1.5c-0.9-0.9-1.8-1.8-2.5-2.8C352,334.1,352.7,333.3,353.3,332.2z"
			/>
		<path d="M386.2,309.4c-1-1.5-1.8-2.5-2.4-3.7c-0.1-0.1,1-0.9,1.5-1.3c0.8,1,1.7,2,2.4,3.2C387.8,307.8,386.9,308.5,386.2,309.4z"
			/>
	</g>
	<g>
		<g>
			<path d="M36.8,435.5c8.8,9.1,17.7,18.2,26.5,27.3c2.4-5.8,4.8-11.5,7.1-17.2c-10.8,0.4-20.7-3.4-28.4-11
				c-5.4-5.3-14.9-2.9-16.9,4.5c-2.8,10.4,1.5,20.6,10.4,26.4c11,7,21.1-10.4,10.2-17.5c-1.5-0.9-1.5-2.2-1.2-3.6
				c-5.6,1.5-11.3,3-16.9,4.5c11.3,11.2,26.7,17.5,42.7,16.9c8.7-0.3,13.4-10.9,7.1-17.2c-8.8-9.1-17.7-18.2-26.5-27.3
				C42,411.9,27.7,426.2,36.8,435.5L36.8,435.5z"/>
		</g>
	</g>
	<g>
		<g>
			<path d="M177.3,494.6c1,0.2,2.1,0.4,3.1,0.6c1.3,0.4,2.7,0.5,4,0.2c1.3-0.1,2.6-0.5,3.8-1.2c1.2-0.6,2.1-1.5,2.8-2.6
				c0.9-1,1.5-2.1,1.8-3.4c0.6-2.6,0.5-5.5-1-7.8c-1.4-2.1-3.5-4.1-6-4.6c-1-0.2-2.1-0.4-3.1-0.6c-1.3-0.4-2.7-0.5-4-0.2
				c-1.3,0.1-2.6,0.5-3.8,1.2c-1.2,0.6-2.1,1.5-2.8,2.6c-0.9,1-1.5,2.1-1.8,3.4c-0.6,2.6-0.5,5.5,1,7.8
				C172.7,492.1,174.8,494.1,177.3,494.6L177.3,494.6z"/>
		</g>
	</g>
	<g>
		<g>
			<path d="M152.4,384.3c0.2-8.6-0.8-17.3-3.1-25.6c-2.1-7.7-14.8-10.6-18.5-2.4c-5.2,11.6-3.6,25.8,6.5,34.4
				c6.4,5.4,15.4,4.6,19.8-3c3.6-6.1,4.4-14.4,3.9-21.3c-0.4-5.5-4.4-10.1-10.1-10.1c-5.2,0-10.5,4.6-10.1,10.1
				c0.2,3.7,0.4,8.8-1.8,12c1.2-1.2,2.4-2.4,3.6-3.6c0.2-0.1,0.4-0.2,0.6-0.2c1.8,0,3.6,0,5.4,0c3.4,1.2,1.5,0.8,0.6-0.7
				c-0.6-1-0.8-1.4-1.1-2.6c-0.3-1.2-0.4-3.4,0.1-4.7c-6.2-0.8-12.3-1.6-18.5-2.4c1.8,6.7,2.6,13.3,2.4,20.2
				C131.9,397.3,152.1,397.3,152.4,384.3L152.4,384.3z"/>
		</g>
	</g>
	<g>
		<g>
			<path d="M276,266.6c4-4,7.9-8.1,11.6-12.4c3.5-4,4.2-10.4,0-14.3c-3.8-3.5-10.6-4.3-14.3,0c-3.7,4.3-7.6,8.4-11.6,12.4
				c-3.8,3.7-4,10.6,0,14.3C265.7,270.3,272,270.6,276,266.6L276,266.6z"/>
		</g>
	</g>
	<g>
		<g>
			<path d="M321.8,369.9c1.2,0.4,2.5,0.8,3.7,1.2c1.3,0.4,2.7,0.5,4,0.2c1.3-0.1,2.6-0.5,3.8-1.2c2.1-1.2,4.1-3.6,4.6-6
				c0.6-2.6,0.5-5.5-1-7.8c-1.5-2.3-3.5-3.8-6-4.6c-1.2-0.4-2.5-0.8-3.7-1.2c-1.3-0.4-2.7-0.5-4-0.2c-1.3,0.1-2.6,0.5-3.8,1.2
				c-2.1,1.2-4.1,3.6-4.6,6c-0.6,2.6-0.5,5.5,1,7.8C317.3,367.5,319.2,369.1,321.8,369.9L321.8,369.9z"/>
		</g>
	</g>
	<g>
		<g>
			<path d="M410.5,449.7c-5.6-1.3-8.3-5.7-7.8-11.2c1-11.2-17.9-13.9-19.9-2.7c-1.7,10.1,1,20.8,9.3,27.3c4,3.1,9,4.2,13.3,0.8
				c3.8-3,5.3-8.7,2.6-13c-3.7-6-6.2-12.5-6.9-19.6c-5.8,2.4-11.5,4.8-17.2,7.1c3.1,3.6,3.2,9.8,4.7,14.1c2.2,6.4,5.5,11.2,11,15.2
				c4.4,3.2,11.3,0.8,13.8-3.6c3-5.1,0.8-10.6-3.6-13.8c-2.5-1.9-3-7.7-3.7-10.5c-1.5-5.9-3.9-11.1-7.9-15.7
				c-5.5-6.4-18.1-1.5-17.2,7.1c1,10.7,4,20.6,9.7,29.8c5.3-4.1,10.6-8.2,15.9-12.2c-2.4-1.9-4.7-4.4-4.1-7.7
				c-6.6-0.9-13.2-1.8-19.9-2.7c-1.3,14,9,27.6,22.6,30.6C417.8,472.1,423.2,452.6,410.5,449.7L410.5,449.7z"/>
		</g>
	</g>
	<g>
		<g>
			<path d="M354.9,344.9c8.3-6.1,16.9-12,24.8-18.6c6.1-5,9.8-13,16.3-17.4c4.5-3.1,6.5-8.9,3.6-13.8c-2.6-4.5-9.3-6.7-13.8-3.6
				c-7.4,5-11.5,12.4-17.9,18.4c-7,6.6-15.4,11.9-23.1,17.6c-4.4,3.2-6.6,8.8-3.6,13.8C343.6,345.6,350.5,348.1,354.9,344.9
				L354.9,344.9z"/>
		</g>
	</g>
	<g>
		<g>
			<path d="M296.2,254c-7.2-4.9-14.4-9.9-21.6-14.8c-4.5-3.1-11.2-0.8-13.8,3.6c-2.9,5-0.9,10.7,3.6,13.8c7.2,5,14.4,9.9,21.6,14.8
				c4.5,3.1,11.2,0.8,13.8-3.6C302.8,262.8,300.7,257.1,296.2,254L296.2,254z"/>
		</g>
	</g>
	<g>
		<g>
			<path d="M417.4,111.7c1.5,1.5,2.6,3,3.3,4.9c0.2,0.7,0.2,2,0.6,2.4c4.3-3.8,5.1-5.2,2.5-4.3c-1,0.2-1.9,0.5-2.9,0.8
				c-7.1,1.8-14.2,3.7-21.3,5.5c2.6,6.2,5.2,12.3,7.8,18.5c9.4-5.1,24-24.4,9.6-32.5c-6.6-3.7-14.3,0.8-19.9,4.5
				c-5.7,3.8-11.5,8.5-14.8,14.6c-6.6,12.1-0.5,29.6,15,29.5c15.1-0.1,25.6-16.8,17.9-30.1c-6.5-11.2-24-1.1-17.5,10.2
				c-1.2-2.1,1,0.1-0.8-0.3c4.1,1.1,1.8,3.1,3,0.4c1-2.1,3.7-4.2,5.5-5.6c1.3-1,2.7-1.8,4.1-2.7c0.8-0.4,1.5-0.9,2.3-1.3
				c2.1-0.9,2.1-1,0-0.4c-1.7-0.5-3.4-0.9-5.1-1.4c0.2,0.2,0.5,0.3,0.7,0.5c-1.7-2.9-3.3-5.8-5-8.7c0.1,2.5-3.5,4.8-5.4,5.8
				c-10.2,5.6-3.2,21.3,7.8,18.5c6.1-1.6,12.2-3.1,18.4-4.7c5.8-1.5,12.7-2.5,16.1-8c5.9-9.7-0.6-23.3-7.8-30.4
				C422.5,88.2,408.2,102.5,417.4,111.7L417.4,111.7z"/>
		</g>
	</g>
	<g>
		<g>
			<path d="M288.5,104.7c2.5-6.7,3.7-13.8,3.9-20.9c0.3-10.2-13.8-13.6-18.8-5.1c-5.3,9-6.7,18.9-4.8,29.1c1,5.4,7.5,8.4,12.4,7.1
				c5.6-1.6,8-7,7.1-12.4c-0.9-4.7,0.4-9.4,2.8-13.5c-6.3-1.7-12.5-3.4-18.8-5.1c-0.1,5.4-1.3,10.5-3.2,15.6
				c-1.9,5.1,2.1,11.1,7.1,12.4C281.7,113.3,286.6,109.9,288.5,104.7L288.5,104.7z"/>
		</g>
	</g>
</g>
</svg>
