<?xml version="1.0" encoding="utf-8"?>
<!-- Generator: Adobe Illustrator 26.5.0, SVG Export Plug-In . SVG Version: 6.00 Build 0)  -->
<svg version="1.1" id="Layer_1" xmlns="http://www.w3.org/2000/svg" xmlns:xlink="http://www.w3.org/1999/xlink" x="0px" y="0px"
	 viewBox="0 0 444 500" style="enable-background:new 0 0 444 500;" xml:space="preserve">
<g>
	<g id="XMLID_00000065787164199059818870000014601557487499590016_">
		<g>
			<path d="M406.1,287.1c0.2,31.3-1.6,63.1-7.3,93.8c-6.4,34.3-30.7,53.1-65.2,55.9c-1.7,0.1-3.5-0.5-5.2-1.6
				c-6.2-3.7-8.1-12.1-3.6-17.9c0.9-1.2,1.9-2,2.9-2.1c43-3.9,50.8-35.6,54.7-69.2c2.2-18.6,1.9-37.7,0.8-56.4
				c-1.3-22.9-16.8-37.8-36.5-37.4c-20.1,0.3-33.3,15.2-33.5,39.1c-0.4,52.1-0.3,104.3-0.4,156.4c-0.1,35.7-16,52-51.4,52.2
				c-46.6,0.2-93.2,0.2-139.8,0c-33.2-0.1-49.2-15.6-49.3-48.7c-0.3-76,0.2-152-0.3-228c-0.1-16.6,7-20.8,22.1-20.7
				c63.8,0.5,127.6,0.2,191.4,0.2c26.2,0,27.1,0.9,27.4,26.8c0,2,0.2,4.1,0.2,5.6c0,0.2,0.2,0.3,0.3,0.3c14.3-2.1,28-6.9,40.9-5.4
				C384.8,233.5,405.9,256,406.1,287.1z"/>
			<path d="M259.9,39.9c0.9,5.2,0.8,10.6-0.7,16.1c-4.9,18.9-20.6,33.6-29.7,50.4c-9.1,16.8,10.5,25.9,8.6,42
				c-0.1,0.7-0.2,1.4-0.7,1.9c-0.4,0.4-1.1,0.6-1.8,0.7c-26.8,4.4-39-27.2-29.7-48.2c6.6-15.1,19.3-28.2,25.3-44
				c4.1-10.8,4-22.6-2-32.7c-3.5-6-9.1-12.4-7-19.1c1.5-4.8,7.1-7.6,12.1-6.8C247.4,2.5,258,28.8,259.9,39.9z"/>
			<path d="M193.9,56.9c4.2,14.9,1.7,31-5.1,44.7c-6.3,12.7-18.2,21.6-23.5,34.8c-2.6,6.4-2.6,14.2,1.8,19.5c4.5,5.5,7.7,7.8,9,15.4
				c1.8,11.1-12.9,6.2-18,3.8c-10.9-5-18.6-15.2-20.6-27.1c-0.1-0.7-0.2-1.3-0.2-2c-1.2-15.3,11.6-27.8,20-39.2
				c7.5-10.2,17.4-22.2,15.4-35.8c-1.8-11.9-11.4-21.1-13.1-33c-1-7.1,1.4-12.2,9.8-10.7C182.6,29.7,190.6,45.2,193.9,56.9z"/>
		</g>
	</g>
</g>
</svg>
