<?xml version="1.0" encoding="utf-8"?>
<!-- Generator: Adobe Illustrator 26.5.0, SVG Export Plug-In . SVG Version: 6.00 Build 0)  -->
<svg version="1.1" id="Layer_1" xmlns="http://www.w3.org/2000/svg" xmlns:xlink="http://www.w3.org/1999/xlink" x="0px" y="0px"
	 viewBox="0 0 444 500" style="enable-background:new 0 0 444 500;" xml:space="preserve">
<g>
	<path d="M1.7,273.7c0-7.1,0-14.1,0-21.2c1.4-3.6,2.6-7.3,4.2-10.8c10-23,27.8-36.3,53.6-37.8c36.3-2.2,65,24.2,65.5,59.5
		c0.2,13.9,0,27.9,0,41.8c65.4,0,129.1,0,193.9,0c0-14.5-0.2-28.5,0.1-42.6c0.6-29.9,22.8-54,53.4-58.3c29-4.1,57,13,66.8,40.8
		c0.9,2.5,2.1,5.1,3.2,7.5c0,6.4,0,12.7,0,19.1c-6.4,11.3-10,26.2-19.7,33.1c-14.8,10.6-17.1,22.5-15.6,37.7
		c0.5,4.5-0.2,9.2,0.1,13.8c1.4,25-9.8,42-35.7,50.5c0,11.3,0,22.8,0,34.2c-6.2,0-11.2,0-17.4,0c0-11.2,0-21.9,0-32.8
		c-88.6,0-176,0-264.6,0c0,11.4,0,22.1,0,32.8c-6.2,0-11.2,0-17.1,0c0-11.2,0-22.1,0-32.5c-28.5-11.6-35.4-21.7-35.4-50.4
		c0-11.6,0.2-23.3-0.2-34.9c-0.1-2.8-1.2-6.8-3.3-8C16.3,305.8,7.4,290.9,1.7,273.7z"/>
	<path d="M72.5,186.8c0-22.3-1.1-44.6,0.3-66.7c1.3-19.7,19.8-35,40.4-35.1c71.6-0.3,143.2-0.3,214.8,0
		c22.1,0.1,41.7,16.9,43.1,38.1c1.5,21.1,0.3,42.2,0.3,63.7c-56.4,12.1-74.7,49-69.8,101c-53.1,0-105.3,0-159.1,0
		c0-7.1,0-14.4,0-21.7c-0.2-40.1-24.6-68.9-65.5-77.6C75.7,188.1,74.4,187.4,72.5,186.8z"/>
</g>
</svg>
